<svg width="25.000000" height="25.000000" viewBox="0 0 25 25" fill="none" xmlns="http://www.w3.org/2000/svg" xmlns:xlink="http://www.w3.org/1999/xlink">
	<desc>
			Created with Pixso.
	</desc>
	<defs>
		<clipPath id="clip55_2797">
			<rect id=" icon / stats" width="25.000000" height="25.000000" fill="white" fill-opacity="0"/>
		</clipPath>
	</defs>
	<rect id=" icon / stats" width="25.000000" height="25.000000" fill="#FFFFFF" fill-opacity="0"/>
	<g clip-path="url(#clip55_2797)">
		<path id="Vector" d="M14.92 11.86L14.51 10.96L13.61 10.55C13.12 10.32 13.12 9.64 13.61 9.41L14.51 9L14.92 8.11C15.15 7.62 15.84 7.62 16.06 8.11L16.47 9.01L17.36 9.42C17.85 9.65 17.85 10.34 17.36 10.56L16.46 10.97L16.05 11.86C15.84 12.35 15.14 12.35 14.92 11.86ZM4.8 14.36L5.21 13.46L6.11 13.05C6.6 12.82 6.6 12.14 6.11 11.91L5.21 11.51L4.8 10.61C4.59 10.12 3.89 10.12 3.67 10.61L3.26 11.51L2.36 11.92C1.87 12.14 1.87 12.84 2.36 13.05L3.26 13.46L3.67 14.36C3.89 14.85 4.59 14.85 4.8 14.36ZM9.17 9.36L9.79 8.04L11.11 7.42C11.6 7.2 11.6 6.51 11.11 6.29L9.79 5.69L9.17 4.36C8.96 3.87 8.26 3.87 8.05 4.36L7.44 5.69L6.11 6.3C5.62 6.51 5.62 7.21 6.11 7.42L7.44 8.04L8.05 9.36C8.26 9.85 8.96 9.85 9.17 9.36ZM22.91 9.36C22.52 9.01 21.94 9.05 21.59 9.44L15.2 16.62L12 13.42C11.51 12.94 10.72 12.94 10.24 13.42L4.29 19.39C3.92 19.75 3.92 20.35 4.29 20.71C4.65 21.07 5.25 21.07 5.61 20.71L11.11 15.2L14.34 18.42C14.85 18.94 15.67 18.91 16.15 18.37L22.99 10.69C23.34 10.3 23.3 9.7 22.91 9.36Z" fill="#3A3A3A" fill-opacity="1.000000" fill-rule="nonzero"/>
	</g>
</svg>
