<svg width="24.000000" height="24.000000" viewBox="0 0 24 24" fill="none" xmlns="http://www.w3.org/2000/svg" xmlns:xlink="http://www.w3.org/1999/xlink">
	<desc>
			Created with Pixso.
	</desc>
	<defs>
		<clipPath id="clip559_21310">
			<rect id="icon / palette" width="24.000000" height="24.000000" fill="white" fill-opacity="0"/>
		</clipPath>
	</defs>
	<rect id="icon / edit" rx="3.000000" width="24.000000" height="24.000000" fill="#FFFFFF" fill-opacity="0.500000"/>
	<g clip-path="url(#clip559_21310)">
		<path id="path" d="M12 22C10.63 22 9.34 21.73 8.12 21.21C6.9 20.68 5.84 19.97 4.93 19.06C4.02 18.15 3.31 17.09 2.78 15.87C2.26 14.65 2 13.36 2 12C2 10.61 2.27 9.31 2.81 8.09C3.35 6.88 4.08 5.82 5.01 4.92C5.93 4.02 7.01 3.31 8.25 2.78C9.48 2.26 10.79 2 12.2 2C13.53 2 14.79 2.22 15.97 2.68C17.15 3.14 18.19 3.77 19.08 4.58C19.97 5.39 20.68 6.35 21.21 7.46C21.73 8.57 22 9.76 22 11.05C22 12.96 21.41 14.43 20.25 15.46C19.08 16.48 17.66 17 16 17L14.14 17C14 17 13.89 17.04 13.83 17.12C13.77 17.2 13.75 17.3 13.75 17.4C13.75 17.59 13.87 17.88 14.12 18.26C14.37 18.63 14.5 19.06 14.5 19.55C14.5 20.38 14.27 21 13.81 21.4C13.35 21.8 12.75 22 12 22ZM6.5 13C6.93 13 7.29 12.85 7.57 12.57C7.85 12.29 8 11.93 8 11.5C8 11.06 7.85 10.7 7.57 10.42C7.29 10.14 6.93 10 6.5 10C6.06 10 5.7 10.14 5.42 10.42C5.14 10.7 5 11.06 5 11.5C5 11.93 5.14 12.29 5.42 12.57C5.7 12.85 6.06 13 6.5 13ZM9.5 9C9.93 9 10.29 8.85 10.57 8.57C10.85 8.29 11 7.93 11 7.5C11 7.06 10.85 6.7 10.57 6.42C10.29 6.14 9.93 6 9.5 6C9.06 6 8.7 6.14 8.42 6.42C8.14 6.7 8 7.06 8 7.5C8 7.93 8.14 8.29 8.42 8.57C8.7 8.85 9.06 9 9.5 9ZM14.5 9C14.93 9 15.29 8.85 15.57 8.57C15.85 8.29 16 7.93 16 7.5C16 7.06 15.85 6.7 15.57 6.42C15.29 6.14 14.93 6 14.5 6C14.06 6 13.7 6.14 13.42 6.42C13.14 6.7 13 7.06 13 7.5C13 7.93 13.14 8.29 13.42 8.57C13.7 8.85 14.06 9 14.5 9ZM17.5 13C17.93 13 18.29 12.85 18.57 12.57C18.85 12.29 19 11.93 19 11.5C19 11.06 18.85 10.7 18.57 10.42C18.29 10.14 17.93 10 17.5 10C17.06 10 16.7 10.14 16.42 10.42C16.14 10.7 16 11.06 16 11.5C16 11.93 16.14 12.29 16.42 12.57C16.7 12.85 17.06 13 17.5 13ZM12 20C12.14 20 12.27 19.95 12.36 19.87C12.45 19.79 12.5 19.68 12.5 19.55C12.5 19.31 12.37 19.04 12.12 18.72C11.87 18.4 11.75 17.93 11.75 17.3C11.75 16.59 11.99 16.04 12.47 15.62C12.95 15.2 13.54 15 14.25 15L16 15C17.1 15 18.04 14.67 18.82 14.03C19.6 13.39 20 12.4 20 11.05C20 9.03 19.22 7.35 17.68 6.01C16.14 4.66 14.31 4 12.2 4C9.93 4 8 4.77 6.39 6.32C4.79 7.87 4 9.76 4 12C4 14.21 4.77 16.1 6.33 17.66C7.89 19.22 9.78 20 12 20Z" fill="#B4B4B4" fill-opacity="1.000000" fill-rule="nonzero"/>
	</g>
</svg>
