<svg width="24.000000" height="24.000000" viewBox="0 0 24 24" fill="none" xmlns="http://www.w3.org/2000/svg" xmlns:xlink="http://www.w3.org/1999/xlink">
	<desc>
			Created with Pixso.
	</desc>
	<defs>
		<clipPath id="clip629_8053">
			<rect id="icon / edit" rx="3.000000" width="24.000000" height="24.000000" fill="white" fill-opacity="0"/>
		</clipPath>
	</defs>
	<rect id="icon / edit" rx="3.000000" width="24.000000" height="24.000000" fill="#FFFFFF" fill-opacity="0.500000"/>
	<g clip-path="url(#clip629_8053)">
		<path id="Vector" d="M19.74 6.33L17.66 4.25C17.33 3.91 16.75 3.91 16.4 4.25L15.48 5.17L14.77 5.88L15.47 6.59L18.1 9.21L19.74 7.59C20.08 7.24 20.08 6.66 19.74 6.33ZM18.1 7.8L18.95 6.96L17.03 5.04L16.18 5.88L18.1 7.8ZM6.91 18.99L5 18.99L5 17.08L13.83 8.24L15.74 10.16L6.91 18.99ZM7.33 19.99L4 19.99L4 16.66L13.12 7.53L13.82 6.82L14.53 7.53L17.16 10.16L7.33 19.99Z" fill="#B4B4B4" fill-opacity="1.000000" fill-rule="evenodd"/>
	</g>
</svg>
