<svg width="24.000000" height="24.000000" viewBox="0 0 24 24" fill="none" xmlns="http://www.w3.org/2000/svg" xmlns:xlink="http://www.w3.org/1999/xlink">
	<desc>
			Created with Pixso.
	</desc>
	<defs>
		<clipPath id="clip3_1297">
			<rect id="icon / order" width="24.000000" height="24.000000" fill="white" fill-opacity="0"/>
		</clipPath>
	</defs>
	<rect id="icon / order" width="24.000000" height="24.000000" fill="#FFFFFF" fill-opacity="0"/>
	<g clip-path="url(#clip3_1297)">
		<path id="Vector" d="M19 19L5 19L5 5L19 5L19 19ZM19 3L5 3C4.46 3 3.96 3.21 3.58 3.58C3.21 3.96 3 4.46 3 5L3 19C3 19.53 3.21 20.03 3.58 20.41C3.96 20.78 4.46 21 5 21L19 21C19.53 21 20.03 20.78 20.41 20.41C20.78 20.03 21 19.53 21 19L21 5C21 3.89 20.1 3 19 3ZM11 15L13 15L13 17L11 17L11 15ZM11 7L13 7L13 13L11 13L11 7Z" fill="red" fill-opacity="1.000000" fill-rule="nonzero"/>
	</g>
</svg>
