<svg width="12.000000" height="12.000000" viewBox="0 0 12 12" fill="none" xmlns="http://www.w3.org/2000/svg" xmlns:xlink="http://www.w3.org/1999/xlink">
	<desc>
			Created with Pixso.
	</desc>
	<defs/>
	<path id="Vector" d="M6.97 5.96L11.83 1.1C11.94 0.97 12 0.81 11.99 0.64C11.99 0.47 11.92 0.32 11.8 0.2C11.68 0.08 11.52 0.01 11.35 0C11.19 0 11.02 0.05 10.89 0.16L6.03 5.02L1.17 0.16C1.05 0.05 0.88 -0.01 0.72 0C0.55 0 0.39 0.07 0.27 0.19C0.15 0.31 0.08 0.47 0.07 0.64C0.07 0.8 0.13 0.97 0.23 1.1L5.09 5.96L0.23 10.82C0.16 10.88 0.1 10.96 0.06 11.04C0.02 11.12 0 11.21 0 11.3C-0.01 11.39 0.01 11.49 0.04 11.57C0.07 11.66 0.13 11.73 0.19 11.8C0.26 11.86 0.33 11.92 0.42 11.95C0.5 11.98 0.6 12 0.69 11.99C0.78 11.99 0.87 11.97 0.95 11.93C1.03 11.89 1.11 11.83 1.17 11.76L6.03 6.9L10.89 11.76C11.02 11.87 11.19 11.93 11.35 11.92C11.52 11.92 11.68 11.85 11.8 11.73C11.92 11.61 11.99 11.45 11.99 11.28C12 11.11 11.94 10.95 11.83 10.82L6.97 5.96Z" fill="#3A3A3A" fill-opacity="1.000000" fill-rule="nonzero"/>
</svg>
