<svg width="15.000000" height="15.000000" viewBox="0 0 20 20" fill="none" xmlns="http://www.w3.org/2000/svg" xmlns:xlink="http://www.w3.org/1999/xlink">
	<desc>
			Created with Pixso.
	</desc>
	<defs/>
	<path id="Vector" d="M9 5L9 7L11 7L11 5L9 5ZM12 15L12 13L11 13L11 9L8 9L8 11L9 11L9 13L8 13L8 15L12 15ZM20 10C20 15.5 15.5 20 10 20C4.5 20 0 15.5 0 10C0 4.5 4.5 0 10 0C15.5 0 20 4.5 20 10ZM18 10C18 5.57 14.42 2 10 2C5.58 2 2 5.57 2 10C2 14.42 5.58 18 10 18C14.42 18 18 14.42 18 10Z" fill="#005475"  fill-rule="nonzero"/>
</svg>
