<svg width="24.000000" height="24.000000" viewBox="0 0 24 24" fill="none" xmlns="http://www.w3.org/2000/svg" xmlns:xlink="http://www.w3.org/1999/xlink">
	<desc>
			Created with Pixso.
	</desc>
	<defs>
		<clipPath id="clip3_1215">
			<rect id="icon / close" width="24.000000" height="24.000000" fill="white" fill-opacity="0"/>
		</clipPath>
	</defs>
	<rect id="icon / close" width="24.000000" height="24.000000" fill="#FFFFFF" fill-opacity="0"/>
	<g clip-path="url(#clip3_1215)">
		<path id="Vector" d="M12.94 11.99L17.79 7.13C17.9 7.01 17.96 6.84 17.95 6.68C17.95 6.51 17.88 6.35 17.76 6.23C17.64 6.11 17.48 6.04 17.31 6.04C17.15 6.03 16.98 6.09 16.86 6.19L12 11.05L7.13 6.19C7.01 6.08 6.84 6.02 6.68 6.03C6.51 6.03 6.35 6.1 6.23 6.22C6.11 6.34 6.04 6.5 6.04 6.67C6.03 6.84 6.09 7 6.19 7.13L11.06 11.99L6.19 16.86C6.12 16.91 6.06 16.99 6.02 17.07C5.98 17.15 5.96 17.24 5.96 17.34C5.95 17.43 5.97 17.52 6 17.6C6.03 17.69 6.09 17.77 6.15 17.83C6.22 17.9 6.29 17.95 6.38 17.98C6.46 18.02 6.56 18.03 6.65 18.03C6.74 18.02 6.83 18 6.91 17.96C7 17.92 7.07 17.86 7.13 17.79L12 12.93L16.86 17.79C16.98 17.9 17.15 17.96 17.31 17.95C17.48 17.95 17.64 17.88 17.76 17.76C17.88 17.64 17.95 17.48 17.95 17.31C17.96 17.15 17.9 16.98 17.79 16.86L12.94 11.99Z" fill="#005475" fill-opacity="1.000000" fill-rule="nonzero"/>
	</g>
</svg>
