<svg width="25.000000" height="25.000000" viewBox="0 0 25 25" fill="none" xmlns="http://www.w3.org/2000/svg" xmlns:xlink="http://www.w3.org/1999/xlink">
	<desc>
			Created with Pixso.
	</desc>
	<defs>
		<clipPath id="clip389_10076">
			<rect id="icon / calendar" rx="0.000000" width="24.000000" height="24.000000" transform="translate(0.500000 0.500000)" fill="white" fill-opacity="0"/>
		</clipPath>
	</defs>
	<rect id="icon / calendar" rx="0.000000" width="24.000000" height="24.000000" transform="translate(0.500000 0.500000)" fill="#FFFFFF" fill-opacity="0"/>
	<g clip-path="url(#clip389_10076)">
		<path id="Vector" d="M20 3.95L19.06 3.95L19.06 2.08L17.18 2.08L17.18 3.95L7.81 3.95L7.81 2.08L5.93 2.08L5.93 3.95L5 3.95C3.96 3.95 3.12 4.8 3.12 5.83L3.12 20.83C3.12 21.86 3.96 22.7 5 22.7L20 22.7C21.03 22.7 21.87 21.86 21.87 20.83L21.87 5.83C21.87 4.8 21.03 3.95 20 3.95ZM20 20.83L5 20.83L5 8.64L20 8.64L20 20.83Z" fill="#3A3A3A" fill-opacity="1.000000" fill-rule="nonzero"/>
	</g>
</svg>
