<svg width="20.000000" height="20.000000" viewBox="0 0 16 16" fill="none" xmlns="http://www.w3.org/2000/svg" xmlns:xlink="http://www.w3.org/1999/xlink">
	<desc>
			Created with Pixso.
	</desc>
	<defs/>
	<path id="Vector" d="M8.08 16C8.08 16 8.08 16 7.91 16C5.75 16 3.77 15.1 2.33 13.66C0.89 12.22 0 10.24 0 7.91C0 6.11 0.53 4.49 1.61 3.05C2.69 1.61 4.31 0.53 6.29 0.17L6.29 1.79C4.85 2.33 3.77 3.05 2.87 3.95C2.15 5.21 1.61 6.47 1.61 7.91C1.61 9.7 2.33 11.32 3.41 12.4C4.49 13.48 5.75 14.02 7.19 14.2L7.19 9.7L4.31 8.26C3.95 8.08 4.49 6.65 5.03 6.83L8.8 8.62L8.8 14.2L8.8 15.28C8.8 15.64 8.62 15.82 8.08 16ZM7.55 0C7.73 0 7.91 0 8.08 0C10.24 0 12.04 0.89 13.66 2.33C15.1 3.77 16 5.75 16 7.91C16 8.98 15.64 10.06 15.28 10.96C15.1 11.5 14.92 12.04 14.38 12.58C14.2 12.94 13.84 13.3 13.3 13.84C13.12 14.02 12.94 14.02 12.94 13.84L13.12 11.86C13.48 11.14 13.48 11.14 13.84 10.42C14.2 9.7 14.38 8.8 14.38 7.91C14.38 6.29 13.66 4.67 12.4 3.41C12.22 3.23 11.86 3.05 11.68 2.69L11.68 15.1C11.14 15.28 10.6 15.46 10.06 15.64L10.06 1.97C9.7 1.79 9.16 1.61 8.8 1.61L8.8 7.73L7.19 6.83L7.19 1.61L7.19 0.53C7.19 0.35 7.19 0 7.55 0Z" fill="#005475" fill-opacity="1.000000" fill-rule="evenodd"/>
</svg>
