<svg width="25.000000" height="25.000000" viewBox="0 0 25 25" fill="none" xmlns="http://www.w3.org/2000/svg" xmlns:xlink="http://www.w3.org/1999/xlink">
	<desc>
			Created with Pixso.
	</desc>
	<defs>
		<clipPath id="clip827_1782">
			<rect id="icon / org" width="25.000000" height="25.000000" fill="white" fill-opacity="0"/>
		</clipPath>
	</defs>
	<rect id="icon / org" width="25.000000" height="25.000000" fill="#FFFFFF" fill-opacity="0"/>
	<g clip-path="url(#clip827_1782)">
		<path id="Vector" d="M19.66 15.5L17.58 15.5L17.58 17.58L19.66 17.58L19.66 15.5ZM19.66 11.33L17.58 11.33L17.58 13.41L19.66 13.41L19.66 11.33ZM21.75 19.66L13.41 19.66L13.41 17.58L15.5 17.58L15.5 15.5L13.41 15.5L13.41 13.41L15.5 13.41L15.5 11.33L13.41 11.33L13.41 9.25L21.75 9.25L21.75 19.66ZM11.33 7.16L9.25 7.16L9.25 5.08L11.33 5.08L11.33 7.16ZM11.33 11.33L9.25 11.33L9.25 9.25L11.33 9.25L11.33 11.33ZM11.33 15.5L9.25 15.5L9.25 13.41L11.33 13.41L11.33 15.5ZM11.33 19.66L9.25 19.66L9.25 17.58L11.33 17.58L11.33 19.66ZM7.16 7.16L5.08 7.16L5.08 5.08L7.16 5.08L7.16 7.16ZM7.16 11.33L5.08 11.33L5.08 9.25L7.16 9.25L7.16 11.33ZM7.16 15.5L5.08 15.5L5.08 13.41L7.16 13.41L7.16 15.5ZM7.16 19.66L5.08 19.66L5.08 17.58L7.16 17.58L7.16 19.66ZM13.41 7.16L13.41 3L3 3L3 21.75L23.83 21.75L23.83 7.16L13.41 7.16Z" fill="#B4B4B4" fill-opacity="0.901961" fill-rule="nonzero"/>
	</g>
</svg>
