<svg width="24.000000" height="24.000000" viewBox="0 0 24 24" fill="none" xmlns="http://www.w3.org/2000/svg" xmlns:xlink="http://www.w3.org/1999/xlink">
	<desc>
			Created with Pixso.
	</desc>
	<defs>
		<clipPath id="clip218_2892">
			<rect id="icon / list view" width="24.000000" height="24.000000" fill="white" fill-opacity="0"/>
		</clipPath>
	</defs>
	<rect id="icon / list view" width="24.000000" height="24.000000" fill="#FFFFFF" fill-opacity="0"/>
	<g clip-path="url(#clip218_2892)">
		<path id="Vector" d="M3 5L3 19L22 19L22 5L3 5ZM7.47 7L7.47 9L5.23 9L5.23 7L7.47 7ZM5.23 13L5.23 11L7.47 11L7.47 13L5.23 13ZM5.23 15L7.47 15L7.47 17L5.23 17L5.23 15ZM19.76 17L9.7 17L9.7 15L19.76 15L19.76 17ZM19.76 13L9.7 13L9.7 11L19.76 11L19.76 13ZM19.76 9L9.7 9L9.7 7L19.76 7L19.76 9Z" fill="#FFFFFF" fill-opacity="1.000000" fill-rule="nonzero"/>
		<rect id="Rectangle 186" x="2.000000" y="4.000000" rx="2.000000" width="20.000000" height="16.000000" stroke="#005475" stroke-opacity="1.000000" stroke-width="2.000000"/>
	</g>
</svg>
