<svg width="36.000000" height="36.000000" viewBox="0 0 36 36" fill="none" xmlns="http://www.w3.org/2000/svg" xmlns:xlink="http://www.w3.org/1999/xlink">
	<desc>
			Created with Pixso.
	</desc>
	<defs>
		<clipPath id="clip810_5262">
			<rect id="subbar / add2-b" rx="0.000000" width="35.000000" height="35.000000" transform="translate(0.500000 0.500000)" fill="white" fill-opacity="0"/>
		</clipPath>
	</defs>
	<rect id="icon / add" rx="2.500000" width="35.000000" height="35.000000" transform="translate(0.500000 0.500000)" fill="#FFFFFF" fill-opacity="0"/>
	<rect id="subbar / add2-b" rx="0.000000" width="35.000000" height="35.000000" transform="translate(0.500000 0.500000)" fill="#FFFFFF" fill-opacity="0"/>
	<g clip-path="url(#clip810_5262)"/>
	<path id="Ellipse 20" d="M18 32.99C26.28 32.99 33 26.28 33 17.99C33 9.71 26.28 3 18 3C9.71 3 3 9.71 3 17.99C3 26.28 9.71 32.99 18 32.99ZM22.99 30.04C21.45 30.68 19.79 30.99 18 30.99C16.2 30.99 14.54 30.68 13 30.04C11.47 29.41 10.07 28.46 8.8 27.19C7.53 25.92 6.58 24.52 5.95 22.99C5.31 21.45 5 19.79 5 17.99C5 16.2 5.31 14.54 5.95 13C6.58 11.47 7.53 10.07 8.8 8.8C10.07 7.53 11.47 6.58 13 5.95C14.54 5.31 16.2 5 18 5C19.79 5 21.45 5.31 22.99 5.95C24.52 6.58 25.92 7.53 27.19 8.8C28.46 10.07 29.41 11.47 30.04 13C30.68 14.54 31 16.2 31 17.99C31 19.79 30.68 21.45 30.04 22.99C29.41 24.52 28.46 25.92 27.19 27.19C25.92 28.46 24.52 29.41 22.99 30.04Z" fill="#005475" fill-opacity="1.000000" fill-rule="evenodd"/>
	<path id="Vector 33" d="M10.5 18L25.5 18M18 10.5L18 25.5" stroke="#005475" stroke-opacity="1.000000" stroke-width="2.000000"/>
</svg>
