<svg width="24.000000" height="24.000000" viewBox="0 0 24 24" fill="none" xmlns="http://www.w3.org/2000/svg" xmlns:xlink="http://www.w3.org/1999/xlink">
	<desc>
			Created with Pixso.
	</desc>
	<defs>
		<clipPath id="clip218_2903">
			<rect id="icon / strategy" width="24.000000" height="24.000000" fill="white" fill-opacity="0"/>
		</clipPath>
	</defs>
	<rect id="icon / strategy" width="24.000000" height="24.000000" fill="#FFFFFF" fill-opacity="0"/>
	<g clip-path="url(#clip218_2903)">
		<path id="Vector" d="M7.51 6.27L9.54 8.28L8.28 9.54L6.27 7.51L4.25 9.54L3 8.28L5.02 6.27L3 4.25L4.25 3L6.27 5.02L8.28 3L9.54 4.25L7.51 6.27ZM21 15.71L19.74 14.45L17.72 16.48L15.71 14.45L14.45 15.71L16.48 17.72L14.45 19.74L15.71 21L17.72 18.97L19.74 21L21 19.74L18.97 17.72L21 15.71ZM19.4 7.44L16.56 11.11L15.17 9.99L16.2 8.67C14.88 8.94 13.66 9.53 12.63 10.4C11.61 11.26 10.81 12.37 10.33 13.63C11.1 14.18 11.64 14.99 11.86 15.91C12.09 16.83 11.97 17.8 11.55 18.64C11.12 19.48 10.4 20.15 9.53 20.51C8.65 20.87 7.68 20.91 6.78 20.61C5.88 20.32 5.12 19.72 4.62 18.91C4.13 18.1 3.94 17.15 4.09 16.21C4.24 15.28 4.72 14.43 5.44 13.82C6.17 13.21 7.08 12.87 8.03 12.88C8.26 12.88 8.49 12.9 8.72 12.95C9.33 11.43 10.3 10.09 11.55 9.04C12.81 7.99 14.3 7.27 15.9 6.94L14.64 5.98L15.76 4.59L19.4 7.44ZM10.23 16.84C10.23 16.41 10.1 15.98 9.86 15.62C9.62 15.26 9.27 14.97 8.87 14.81C8.47 14.64 8.03 14.6 7.6 14.68C7.17 14.77 6.78 14.98 6.47 15.28C6.16 15.59 5.95 15.99 5.87 16.41C5.78 16.84 5.83 17.28 5.99 17.69C6.16 18.09 6.44 18.43 6.8 18.68C7.17 18.92 7.59 19.05 8.03 19.05C8.61 19.05 9.17 18.81 9.59 18.4C10 17.99 10.23 17.43 10.23 16.84Z" fill="#FFFFFF" fill-opacity="0.901961" fill-rule="nonzero"/>
	</g>
</svg>
