<svg width="24.000000" height="24.000000" viewBox="0 0 24 24" fill="none" xmlns="http://www.w3.org/2000/svg" xmlns:xlink="http://www.w3.org/1999/xlink">
	<desc>
			Created with Pixso.
	</desc>
	<defs/>
	<rect id="icon /policy" width="24.000000" height="24.000000" fill="#FFFFFF" fill-opacity="0"/>
	<path id="Vector" d="M19.66 1.33L4.33 1.33C3.78 1.33 3.33 1.78 3.33 2.33L3.33 20.99C3.33 21.55 3.78 21.99 4.33 21.99L19.66 21.99C20.21 21.99 20.66 21.55 20.66 20.99L20.66 2.33C20.66 1.78 20.21 1.33 19.66 1.33Z" fill="#FFFFFF" fill-opacity="1.000000" fill-rule="nonzero"/>
	<path id="Vector" d="M4.33 1.33L19.66 1.33C20.21 1.33 20.66 1.78 20.66 2.33L20.66 20.99C20.66 21.55 20.21 21.99 19.66 21.99L4.33 21.99C3.78 21.99 3.33 21.55 3.33 20.99L3.33 2.33C3.33 1.78 3.78 1.33 4.33 1.33ZM4.33 2.33L19.66 2.33L19.66 20.99L4.33 20.99L4.33 2.33Z" fill="#005475" fill-opacity="1.000000" fill-rule="evenodd"/>
	<path id="Форма 2" d="M16.66 6.83L8 6.83L8 7.83L16.66 7.83C16.94 7.83 17.16 7.61 17.16 7.33C17.16 7.05 16.94 6.83 16.66 6.83ZM16.66 9.5L7.33 9.5L7.33 10.5L16.66 10.5C16.94 10.5 17.16 10.28 17.16 10C17.16 9.71 16.94 9.5 16.66 9.5ZM16.66 12.16L7.33 12.16L7.33 13.16L16.66 13.16C16.94 13.16 17.16 12.94 17.16 12.66C17.16 12.38 16.94 12.16 16.66 12.16ZM16.66 14.83L7.33 14.83L7.33 15.83L16.66 15.83C16.94 15.83 17.16 15.61 17.16 15.33C17.16 15.05 16.94 14.83 16.66 14.83Z" fill="#3A3A3A" fill-opacity="1.000000" fill-rule="evenodd"/>
</svg>
