<svg width="24.000000" height="24.000000" viewBox="0 0 24 24" fill="none" xmlns="http://www.w3.org/2000/svg" xmlns:xlink="http://www.w3.org/1999/xlink">
	<desc>
			Created with Pixso.
	</desc>
	<defs>
		<clipPath id="clip3_1167">
			<rect id="icon / save" width="24.000000" height="24.000000" fill="white" fill-opacity="0"/>
		</clipPath>
	</defs>
	<rect id="icon / save" width="24.000000" height="24.000000" fill="#FFFFFF" fill-opacity="0"/>
	<g clip-path="url(#clip3_1167)">
		<path id="Vector" d="M20.4 13.75L20.4 7.2L16.79 3.6L3.59 3.6L3.59 20.4L13.76 20.4L20.4 13.75ZM15 10.2L6.59 10.2L6.59 6.6L15 6.6L15 10.2ZM14.7 15C14.7 16.48 13.48 17.7 12 17.7C10.51 17.7 9.29 16.48 9.29 15C9.29 13.51 10.51 12.3 12 12.3C13.48 12.3 14.7 13.51 14.7 15ZM20.18 16.52L21.87 18.21L17.29 22.8L15.6 22.8L15.6 21.1L20.18 16.52ZM20.77 15.92L21.94 14.74L23.64 16.44L22.46 17.61L20.77 15.92Z" fill="#000000" fill-opacity="1.000000" fill-rule="nonzero"/>
	</g>
</svg>
