<svg width="19.198975" height="11.283203" viewBox="0 0 19.199 11.2832" fill="none" xmlns="http://www.w3.org/2000/svg" xmlns:xlink="http://www.w3.org/1999/xlink">
	<desc>
			Created with Pixso.
	</desc>
	<defs/>
	<path id="Vector" d="M0.07 6.55L4.65 11.14L5.8 9.97L1.23 5.4L0.07 6.55ZM17.96 0.14L9.29 8.82L5.88 5.4L4.71 6.55L9.29 11.14L19.12 1.3L17.96 0.14ZM14.48 1.3L13.33 0.14L8.12 5.34L9.29 6.5L14.48 1.3Z" fill="#78A6FF" fill-opacity="1.000000" fill-rule="nonzero"/>
	<path id="Vector" d="M14.63 1.3L13.33 0L13.26 0.07L7.98 5.34L9.29 6.64L14.63 1.3ZM18.03 0.21L18.03 0.21L17.89 0.07L9.29 8.68L5.88 5.26L4.56 6.55L9.29 11.28L19.19 1.37L19.12 1.3L9.36 11.07L9.29 11.14L9.22 11.07L4.78 6.63L4.71 6.55L4.78 6.48L5.88 5.4L9.22 8.75L9.29 8.82L9.36 8.75L17.96 0.14L18.03 0.21ZM13.33 0.14L13.4 0.21L14.48 1.3L9.29 6.5L8.19 5.41L8.12 5.34L8.19 5.27L13.26 0.21L13.33 0.14ZM0.14 6.48L0.14 6.48L0 6.63L4.65 11.28L5.94 9.97L1.3 5.33L1.23 5.4L5.8 9.97L4.72 11.07L4.65 11.14L4.58 11.07L0.07 6.55L0.14 6.48Z" fill="#B4B4B4" fill-opacity="1.000000" fill-rule="evenodd"/>
</svg>
