<svg width="25.000000" height="25.000000" viewBox="0 0 25 25" fill="none" xmlns="http://www.w3.org/2000/svg" xmlns:xlink="http://www.w3.org/1999/xlink">
	<desc>
			Created with Pixso.
	</desc>
	<defs>
		<clipPath id="clip101_2017">
			<rect id="list / schema" rx="0.000000" width="24.000000" height="24.000000" transform="translate(0.500000 0.500000)" fill="white" fill-opacity="0"/>
		</clipPath>
	</defs>
	<rect id="list / schema" rx="0.000000" width="24.000000" height="24.000000" transform="translate(0.500000 0.500000)" fill="#FFFFFF" fill-opacity="0"/>
	<g clip-path="url(#clip101_2017)">
		<path id="Vector" d="M14.37 10.93L14.37 11.56L11.87 11.56L11.87 10.93C11.87 10.25 11.31 9.68 10.62 9.68L9.37 9.68L9.37 8.12L10.62 8.12C11.31 8.12 11.87 7.56 11.87 6.87L11.87 3.75C11.87 3.06 11.31 2.5 10.62 2.5L6.25 2.5C5.56 2.5 5 3.06 5 3.75L5 6.87C5 7.56 5.56 8.12 6.25 8.12L7.5 8.12L7.5 9.68L6.25 9.68C5.56 9.68 5 10.25 5 10.93L5 14.06C5 14.75 5.56 15.31 6.25 15.31L7.5 15.31L7.5 17.5L6.25 17.5C5.56 17.5 5 18.06 5 18.75L5 21.87C5 22.56 5.56 23.12 6.25 23.12L10.62 23.12C11.31 23.12 11.87 22.56 11.87 21.87L11.87 18.75C11.87 18.06 11.31 17.5 10.62 17.5L9.37 17.5L9.37 15.31L10.62 15.31C11.31 15.31 11.87 14.75 11.87 14.06L11.87 13.43L14.37 13.43L14.37 14.06C14.37 14.75 14.93 15.31 15.62 15.31L20 15.31C20.68 15.31 21.25 14.75 21.25 14.06L21.25 10.93C21.25 10.25 20.68 9.68 20 9.68L15.62 9.68C14.93 9.68 14.37 10.25 14.37 10.93Z" fill="#FFFFFF"  fill-rule="nonzero"/>
	</g>
</svg>
