<svg width="24.000000" height="24.000000" viewBox="0 0 24 24" fill="none" xmlns="http://www.w3.org/2000/svg" xmlns:xlink="http://www.w3.org/1999/xlink">
	<desc>
			Created with Pixso.
	</desc>
	<defs>
		<clipPath id="clip3_1128">
			<rect id="icon / GM" width="24.000000" height="24.000000" fill="white" fill-opacity="0"/>
		</clipPath>
	</defs>
	<g clip-path="url(#clip3_1128)">
		<path id="Vector" d="M12.08 20C12.08 20 12.08 20 11.91 20C9.75 20 7.77 19.1 6.33 17.66C4.89 16.22 4 14.24 4 11.91C4 10.11 4.53 8.49 5.61 7.05C6.69 5.61 8.31 4.53 10.29 4.17L10.29 5.79C8.85 6.33 7.77 7.05 6.87 7.95C6.15 9.21 5.61 10.47 5.61 11.91C5.61 13.7 6.33 15.32 7.41 16.4C8.49 17.48 9.75 18.02 11.19 18.2L11.19 13.7L8.31 12.26C7.95 12.08 8.49 10.65 9.03 10.83L12.8 12.62L12.8 18.2L12.8 19.28C12.8 19.64 12.62 19.82 12.08 20ZM11.55 4C11.73 4 11.91 4 12.08 4C14.24 4 16.04 4.89 17.66 6.33C19.1 7.77 20 9.75 20 11.91C20 12.98 19.64 14.06 19.28 14.96C19.1 15.5 18.92 16.04 18.38 16.58C18.2 16.94 17.84 17.3 17.3 17.84C17.12 18.02 16.94 18.02 16.94 17.84L17.12 15.86C17.48 15.14 17.48 15.14 17.84 14.42C18.2 13.7 18.38 12.8 18.38 11.91C18.38 10.29 17.66 8.67 16.4 7.41C16.22 7.23 15.86 7.05 15.68 6.69L15.68 19.1C15.14 19.28 14.6 19.46 14.06 19.64L14.06 5.97C13.7 5.79 13.16 5.61 12.8 5.61L12.8 11.73L11.19 10.83L11.19 5.61L11.19 4.53C11.19 4.35 11.19 4 11.55 4Z" fill="#005475" fill-opacity="1.000000" fill-rule="evenodd"/>
	</g>
</svg>
