<svg width="24.000000" height="24.000000" viewBox="0 0 24 24" fill="none" xmlns="http://www.w3.org/2000/svg" xmlns:xlink="http://www.w3.org/1999/xlink">
	<desc>
			Created with Pixso.
	</desc>
	<defs>
		<clipPath id="clip3_1277">
			<rect id="icon / post" width="24.000000" height="24.000000" fill="white" fill-opacity="0"/>
		</clipPath>
	</defs>
	<g clip-path="url(#clip3_1277)">
		<path id="Vector" d="M7 23C6.46 23 5.96 22.78 5.58 22.41C5.21 22.03 5 21.53 5 21L5 11C5 10.46 5.21 9.96 5.58 9.58C5.96 9.21 6.46 9 7 9L11 9L11 7L10 7C9.73 7 9.48 6.89 9.29 6.7C9.1 6.51 9 6.26 9 6L2 6L2 4L9 4C9 3.73 9.1 3.48 9.29 3.29C9.48 3.1 9.73 3 10 3L14 3C14.26 3 14.51 3.1 14.7 3.29C14.89 3.48 15 3.73 15 4L22 4L22 6L15 6C15 6.26 14.89 6.51 14.7 6.7C14.51 6.89 14.26 7 14 7L13 7L13 9L17 9C18.11 9 19 9.9 19 11L19 21C19 21.53 18.78 22.03 18.41 22.41C18.03 22.78 17.53 23 17 23L7 23ZM12 15.28C13.18 15.28 14.13 14.32 14.13 13.14C14.13 11.95 13.18 11 12 11C10.81 11 9.85 11.95 9.85 13.14C9.85 14.32 10.81 15.28 12 15.28ZM7 19.21C7 17.54 10.33 16.71 12 16.71C13.66 16.71 17 17.54 17 19.21L17 20.28C17 20.67 16.67 21 16.28 21L7.71 21C7.32 21 7 20.67 7 20.28L7 19.21Z" fill="#3A3A3A" fill-opacity="1.000000" fill-rule="evenodd"/>
	</g>
</svg>
