<svg width="17.048126" height="17.058105" viewBox="0 0 17.0481 17.0581" fill="none" xmlns="http://www.w3.org/2000/svg" xmlns:xlink="http://www.w3.org/1999/xlink">
	<desc>
			Created with Pixso.
	</desc>
	<defs/>
	<path id="Vector" d="M12.5 11L11.71 11L11.43 10.73C12.63 9.33 13.25 7.42 12.91 5.39C12.44 2.61 10.12 0.39 7.32 0.05C3.09 -0.47 -0.47 3.09 0.05 7.32C0.39 10.12 2.61 12.44 5.39 12.91C7.42 13.25 9.33 12.63 10.73 11.43L11 11.71L11 12.5L15.25 16.75C15.66 17.16 16.33 17.16 16.74 16.75C17.15 16.34 17.15 15.67 16.74 15.26L12.5 11ZM6.5 11C4.01 11 2 8.99 2 6.5C2 4.01 4.01 2 6.5 2C8.99 2 11 4.01 11 6.5C11 8.99 8.99 11 6.5 11Z" fill="#B4B4B4" fill-opacity="1.000000" fill-rule="nonzero"/>
</svg>
