<svg width="24.000000" height="24.000000" viewBox="0 0 24 24" fill="none" xmlns="http://www.w3.org/2000/svg" xmlns:xlink="http://www.w3.org/1999/xlink">
	<desc>
			Created with Pixso.
	</desc>
	<defs>
		<clipPath id="clip247_20242">
			<rect id="list / settings" width="24.000000" height="24.000000" fill="white" fill-opacity="0"/>
		</clipPath>
	</defs>
	<rect id="list / settings" width="24.000000" height="24.000000" fill="#FFFFFF" fill-opacity="0"/>
	<g clip-path="url(#clip247_20242)">
		<path id="Vector" d="M21.67 14.67L20.14 13.36C20.21 12.91 20.25 12.46 20.25 12.01C20.25 11.56 20.21 11.1 20.14 10.66L21.67 9.34C21.79 9.25 21.87 9.11 21.91 8.97C21.95 8.82 21.94 8.66 21.89 8.52L21.87 8.46C21.44 7.28 20.81 6.19 20 5.23L19.96 5.18C19.86 5.07 19.73 4.98 19.58 4.94C19.44 4.9 19.28 4.91 19.14 4.96L17.23 5.64C16.53 5.06 15.75 4.61 14.9 4.29L14.53 2.3C14.5 2.15 14.43 2.01 14.32 1.91C14.21 1.8 14.08 1.73 13.93 1.7L13.86 1.69C12.64 1.47 11.36 1.47 10.14 1.69L10.08 1.7C9.93 1.73 9.79 1.8 9.68 1.91C9.57 2.01 9.5 2.15 9.47 2.3L9.1 4.3C8.26 4.62 7.48 5.07 6.78 5.64L4.87 4.96C4.72 4.91 4.57 4.9 4.42 4.94C4.27 4.98 4.14 5.07 4.04 5.18L4 5.23C3.19 6.19 2.56 7.28 2.14 8.46L2.12 8.52C2.01 8.81 2.1 9.14 2.33 9.34L3.89 10.67C3.81 11.11 3.78 11.56 3.78 12C3.78 12.46 3.81 12.91 3.89 13.34L2.34 14.66C2.22 14.76 2.14 14.9 2.1 15.04C2.06 15.19 2.07 15.35 2.12 15.49L2.14 15.55C2.57 16.73 3.19 17.82 4.01 18.78L4.05 18.83C4.15 18.94 4.28 19.03 4.43 19.07C4.57 19.11 4.73 19.1 4.87 19.05L6.79 18.37C7.49 18.94 8.27 19.4 9.11 19.71L9.48 21.71C9.51 21.86 9.58 22 9.69 22.11C9.79 22.21 9.93 22.29 10.08 22.31L10.15 22.33C11.38 22.55 12.64 22.55 13.87 22.33L13.93 22.31C14.08 22.29 14.22 22.21 14.33 22.11C14.43 22 14.51 21.86 14.54 21.71L14.9 19.72C15.75 19.4 16.53 18.95 17.24 18.37L19.14 19.05C19.28 19.1 19.44 19.11 19.59 19.07C19.73 19.03 19.87 18.94 19.96 18.83L20.01 18.78C20.82 17.82 21.45 16.73 21.87 15.55L21.89 15.49C21.99 15.2 21.91 14.87 21.67 14.67ZM12.01 15.89C9.73 15.89 7.89 14.05 7.89 11.77C7.89 9.5 9.73 7.65 12.01 7.65C14.28 7.65 16.13 9.5 16.13 11.77C16.13 14.05 14.28 15.89 12.01 15.89Z" fill="#FFFFFF" fill-opacity="1.000000" fill-rule="nonzero"/>
		<path id="Vector" d="M20.14 13.36C20.21 12.91 20.25 12.46 20.25 12.01C20.25 11.56 20.21 11.1 20.14 10.66L21.67 9.34C21.79 9.25 21.87 9.11 21.91 8.97C21.95 8.82 21.94 8.66 21.89 8.52L21.87 8.46C21.44 7.28 20.81 6.19 20 5.23L19.96 5.18C19.86 5.07 19.73 4.98 19.58 4.94C19.44 4.9 19.28 4.91 19.14 4.96L17.23 5.64C16.53 5.06 15.75 4.61 14.9 4.29L14.53 2.3C14.5 2.15 14.43 2.01 14.32 1.91C14.21 1.8 14.08 1.73 13.93 1.7L13.86 1.69C12.64 1.47 11.36 1.47 10.14 1.69L10.08 1.7C9.93 1.73 9.79 1.8 9.68 1.91C9.57 2.01 9.5 2.15 9.47 2.3L9.1 4.3C8.26 4.62 7.48 5.07 6.78 5.64L4.87 4.96C4.72 4.91 4.57 4.9 4.42 4.94C4.27 4.98 4.14 5.07 4.04 5.18L4 5.23C3.19 6.19 2.56 7.28 2.14 8.46L2.12 8.52C2.01 8.81 2.1 9.14 2.33 9.34L3.89 10.67C3.81 11.11 3.78 11.56 3.78 12C3.78 12.46 3.81 12.91 3.89 13.34L2.34 14.66C2.22 14.76 2.14 14.9 2.1 15.04C2.06 15.19 2.07 15.35 2.12 15.49L2.14 15.55C2.57 16.73 3.19 17.82 4.01 18.78L4.05 18.83C4.15 18.94 4.28 19.03 4.43 19.07C4.57 19.11 4.73 19.1 4.87 19.05L6.79 18.37C7.49 18.94 8.27 19.4 9.11 19.71L9.48 21.71C9.51 21.86 9.58 22 9.69 22.11C9.79 22.21 9.93 22.29 10.08 22.31L10.15 22.33C11.38 22.55 12.64 22.55 13.87 22.33L13.93 22.31C14.08 22.29 14.22 22.21 14.33 22.11C14.43 22 14.51 21.86 14.54 21.71L14.9 19.72C15.75 19.4 16.53 18.95 17.24 18.37L19.14 19.05C19.28 19.1 19.44 19.11 19.59 19.07C19.73 19.03 19.87 18.94 19.96 18.83L20.01 18.78C20.82 17.82 21.45 16.73 21.87 15.55L21.89 15.49C21.99 15.2 21.91 14.87 21.67 14.67L20.14 13.36ZM19.25 12.08C19.24 12.46 19.21 12.83 19.15 13.2L19.06 13.75L20.89 15.32C20.7 15.83 20.47 16.32 20.19 16.79C19.94 17.23 19.64 17.65 19.31 18.05L17.04 17.24L16.6 17.6C16.26 17.89 15.89 18.14 15.5 18.35C15.2 18.52 14.88 18.66 14.55 18.78L14.02 18.98L13.58 21.36C13.03 21.45 12.48 21.5 11.93 21.49C11.43 21.49 10.93 21.44 10.43 21.36L9.99 18.97L9.46 18.77C9.31 18.72 9.17 18.66 9.03 18.6C8.46 18.34 7.93 18.01 7.42 17.6L6.99 17.24L4.7 18.05C4.39 17.68 4.12 17.29 3.88 16.89C3.58 16.39 3.32 15.87 3.12 15.31L4.96 13.73L4.87 13.18C4.81 12.8 4.78 12.41 4.78 12C4.78 11.6 4.81 11.21 4.87 10.83L4.96 10.27L3.11 8.7C3.31 8.17 3.55 7.67 3.83 7.19C4.08 6.76 4.37 6.35 4.7 5.96L6.98 6.77L7.42 6.41C7.73 6.16 8.05 5.94 8.39 5.74C8.73 5.54 9.09 5.38 9.46 5.23L9.98 5.03L10.42 2.65C10.94 2.56 11.47 2.52 12 2.52C12.54 2.52 13.06 2.56 13.58 2.65L14.02 5.03L14.55 5.23C14.76 5.31 14.97 5.4 15.17 5.5C15.68 5.74 16.15 6.05 16.6 6.41L17.04 6.77L19.31 5.96C19.68 6.41 20.01 6.89 20.29 7.39C20.52 7.81 20.72 8.25 20.89 8.7L19.06 10.26L19.15 10.82C19.18 11.01 19.21 11.2 19.22 11.4C19.24 11.6 19.25 11.8 19.25 12.01C19.25 12.03 19.25 12.06 19.25 12.08ZM3.06 8.84L3.06 8.85C3.06 8.84 3.06 8.84 3.06 8.84ZM3.06 15.16C3.06 15.16 3.06 15.15 3.06 15.15L3.06 15.16ZM7.01 10.67C6.93 11.03 6.89 11.4 6.89 11.77C6.89 12.15 6.93 12.52 7.01 12.88C7.07 13.18 7.17 13.48 7.29 13.77C7.41 14.06 7.56 14.33 7.73 14.59C7.92 14.88 8.14 15.15 8.39 15.39C8.63 15.64 8.9 15.86 9.19 16.05C9.45 16.22 9.72 16.37 10.01 16.49C10.3 16.61 10.6 16.71 10.9 16.77C11.26 16.85 11.63 16.89 12.01 16.89C12.38 16.89 12.75 16.85 13.11 16.77C13.41 16.71 13.71 16.61 14 16.49C14.29 16.37 14.57 16.22 14.83 16.05C15.11 15.86 15.38 15.64 15.63 15.39C15.87 15.15 16.09 14.88 16.28 14.59C16.45 14.33 16.6 14.06 16.72 13.77C16.85 13.48 16.94 13.18 17.01 12.88C17.09 12.52 17.13 12.15 17.13 11.77C17.13 11.4 17.09 11.03 17.01 10.67C16.94 10.37 16.85 10.07 16.72 9.78C16.6 9.49 16.45 9.21 16.28 8.95C16.09 8.67 15.87 8.4 15.63 8.15C15.38 7.91 15.11 7.69 14.83 7.5C14.57 7.33 14.29 7.18 14 7.06C13.71 6.93 13.41 6.84 13.11 6.77C12.75 6.69 12.38 6.65 12.01 6.65C11.63 6.65 11.26 6.69 10.9 6.77C10.6 6.84 10.3 6.93 10.01 7.06C9.72 7.18 9.45 7.33 9.19 7.5C8.9 7.69 8.63 7.91 8.39 8.15C8.14 8.4 7.92 8.67 7.73 8.95C7.56 9.21 7.41 9.49 7.29 9.78C7.17 10.07 7.07 10.37 7.01 10.67ZM12.01 15.89C9.73 15.89 7.89 14.05 7.89 11.77C7.89 9.5 9.73 7.65 12.01 7.65C14.28 7.65 16.13 9.5 16.13 11.77C16.13 14.05 14.28 15.89 12.01 15.89Z" fill="#005475" fill-opacity="1.000000" fill-rule="evenodd"/>
	</g>
</svg>
