<svg width="25.000000" height="25.000000" viewBox="0 0 25 25" fill="none" xmlns="http://www.w3.org/2000/svg" xmlns:xlink="http://www.w3.org/1999/xlink">
	<desc>
			Created with Pixso.
	</desc>
	<defs>
		<clipPath id="clip389_10073">
			<rect id="subbar / attach" rx="0.000000" width="24.000000" height="24.000000" transform="translate(0.500000 0.500000)" fill="white" fill-opacity="0"/>
		</clipPath>
	</defs>
	<rect id="subbar / attach" rx="0.000000" width="24.000000" height="24.000000" transform="translate(0.500000 0.500000)" fill="#FFFFFF" fill-opacity="0"/>
	<g clip-path="url(#clip389_10073)">
		<path id="Vector" d="M16.77 6.86L16.77 17.75C16.77 18.75 16.37 19.71 15.66 20.43C14.95 21.14 13.99 21.54 12.98 21.54C11.98 21.54 11.02 21.14 10.31 20.43C9.59 19.71 9.2 18.75 9.2 17.75L9.2 5.91C9.2 5.28 9.45 4.68 9.89 4.24C10.33 3.79 10.94 3.54 11.56 3.54C12.19 3.54 12.79 3.79 13.24 4.24C13.68 4.68 13.93 5.28 13.93 5.91L13.93 15.85C13.93 16.1 13.83 16.34 13.65 16.52C13.48 16.7 13.23 16.8 12.98 16.8C12.73 16.8 12.49 16.7 12.31 16.52C12.14 16.34 12.04 16.1 12.04 15.85L12.04 6.86L10.62 6.86L10.62 15.85C10.62 16.48 10.87 17.08 11.31 17.53C11.75 17.97 12.36 18.22 12.98 18.22C13.61 18.22 14.21 17.97 14.66 17.53C15.1 17.08 15.35 16.48 15.35 15.85L15.35 5.91C15.35 4.91 14.95 3.94 14.24 3.23C13.53 2.52 12.57 2.12 11.56 2.12C10.56 2.12 9.6 2.52 8.88 3.23C8.17 3.94 7.78 4.91 7.78 5.91L7.78 17.75C7.78 19.13 8.32 20.45 9.3 21.43C10.28 22.41 11.6 22.96 12.98 22.96C14.36 22.96 15.69 22.41 16.67 21.43C17.64 20.45 18.19 19.13 18.19 17.75L18.19 6.86L16.77 6.86Z" fill="#3A3A3A" fill-opacity="1.000000" fill-rule="nonzero"/>
	</g>
</svg>
