<svg width="20.000000" height="20.000000" viewBox="0 0 16 16" fill="none" xmlns="http://www.w3.org/2000/svg" xmlns:xlink="http://www.w3.org/1999/xlink">
	<desc>
			Created with Pixso.
	</desc>
	<defs>
		<clipPath id="clip8_4774">
			<rect id="subbar / search" width="16.000000" height="16.000000" fill="white" fill-opacity="0"/>
		</clipPath>
	</defs>
	<rect id="subbar / search" width="16.000000" height="16.000000" fill="#FFFFFF" fill-opacity="0"/>
	<g clip-path="url(#clip8_4774)">
		<path id="Vector" d="M10.33 9.33L9.8 9.33L9.61 9.15C10.41 8.21 10.83 6.94 10.6 5.59C10.29 3.73 8.74 2.26 6.87 2.03C4.05 1.68 1.68 4.05 2.03 6.87C2.25 8.74 3.73 10.29 5.59 10.6C6.94 10.83 8.21 10.41 9.15 9.61L9.33 9.8L9.33 10.33L12.16 13.16C12.43 13.43 12.88 13.43 13.15 13.16C13.43 12.89 13.43 12.44 13.15 12.17L10.33 9.33ZM6.33 9.33C4.67 9.33 3.33 7.99 3.33 6.33C3.33 4.67 4.67 3.33 6.33 3.33C7.99 3.33 9.33 4.67 9.33 6.33C9.33 7.99 7.99 9.33 6.33 9.33Z" fill="#3A3A3A" fill-opacity="1.000000" fill-rule="nonzero"/>
	</g>
</svg>
