<svg width="25.000000" height="25.000000" viewBox="0 0 25 25" fill="none" xmlns="http://www.w3.org/2000/svg" xmlns:xlink="http://www.w3.org/1999/xlink">
	<desc>
			Created with Pixso.
	</desc>
	<defs>
		<clipPath id="clip389_10067">
			<rect id="subbar / share" rx="0.000000" width="24.000000" height="24.000000" transform="translate(0.500000 0.500000)" fill="white" fill-opacity="0"/>
		</clipPath>
	</defs>
	<rect id="subbar / share" rx="0.000000" width="24.000000" height="24.000000" transform="translate(0.500000 0.500000)" fill="#FFFFFF" fill-opacity="0"/>
	<g clip-path="url(#clip389_10067)">
		<path id="Vector" d="M17 15.38C16.49 15.38 16.04 15.58 15.69 15.9L10.93 13.13C10.97 12.98 11 12.82 11 12.66C11 12.5 10.97 12.35 10.93 12.2L15.64 9.45C16 9.79 16.47 10 17 10C18.1 10 19 9.1 19 8C19 6.89 18.1 6 17 6C15.89 6 15 6.89 15 8C15 8.16 15.02 8.31 15.06 8.46L10.36 11.2C10 10.87 9.52 10.66 9 10.66C7.89 10.66 7 11.55 7 12.66C7 13.77 7.89 14.66 9 14.66C9.52 14.66 10 14.46 10.36 14.12L15.1 16.9C15.07 17.04 15.05 17.18 15.05 17.33C15.05 18.4 15.92 19.28 17 19.28C18.07 19.28 18.94 18.4 18.94 17.33C18.94 16.25 18.07 15.38 17 15.38Z" fill="#3A3A3A" fill-opacity="1.000000" fill-rule="nonzero"/>
	</g>
</svg>
