<svg width="24.000000" height="24.000000" viewBox="0 0 24 24" fill="none" xmlns="http://www.w3.org/2000/svg" xmlns:xlink="http://www.w3.org/1999/xlink">
	<desc>
			Created with Pixso.
	</desc>
	<defs>
		<clipPath id="clip3_1213">
			<rect id="icon / delete" width="24.000000" height="24.000000" fill="white" fill-opacity="0"/>
		</clipPath>
	</defs>
	<rect id="icon / delete" width="24.000000" height="24.000000" fill="#FFFFFF" fill-opacity="0"/>
	<g clip-path="url(#clip3_1213)">
		<path id="Vector" d="M9 3L9 4L4 4L4 6L5 6L5 19C5 19.53 5.21 20.03 5.58 20.41C5.96 20.78 6.46 21 7 21L17 21C17.53 21 18.03 20.78 18.41 20.41C18.78 20.03 19 19.53 19 19L19 6L20 6L20 4L15 4L15 3L9 3ZM7 6L17 6L17 19L7 19L7 6ZM9 8L9 17L11 17L11 8L9 8ZM13 8L13 17L15 17L15 8L13 8Z" fill="currentColor" fill-opacity="1.000000" fill-rule="evenodd"/>
	</g>
</svg>
